PathFileType	4	(X/Y/Z)	Kaydara																																																																																																																																																																																																																												
DataRate	CameraRate	NumFrames	NumMarkers	Units	OrigDataRate	OrigDataStartFrame	OrigNumFrames																																																																																																																																																																																																																								
60	60	4	74	mm	60	1258	294																																																																																																																																																																																																																								
Frame#	Time	N_lasi			N_rasi			N_rpsi			N_lpsi			N_fneck			N_bneck			N_fhead			N_rhead			N_lhead			N_rshld			N_relbtop			N_relbext			N_relblow			N_rwrext			N_rwrtop			N_rwrlow			N_lshld			N_lelblow			N_lelbtop			N_lwrext			N_lwrtop			N_lwrlow			N_rtopleg			N_ltopleg			N_rkneefr			N_rkneebk			N_rkneeis			N_lkneefr			N_lknssbk			N_lkneeis			N_rankfr			N_rankis			N_rankbk			N_lankfr			N_lankbk			N_lankis			D_lasi			D_rasi			D_lpsi			D_fneck			D_bneck			D_fhead			D_rhead			D_lhead			D_rshld			D_relbtop			D_relbext			D_relblow			D_rwrext			D_rwrtop			D_rwrlow			D_lshld			D_lelbext			D_lelblow			D_lelbtop			D_lwrext			D_lwrtop			D_lwrlow			D_rtopleg			D_ltopleg			D_rkneefr			D_rkneebk			D_rkneeis			D_lkneefr			D_lknssbk			D_lkneeis			D_rankfr			D_rankis			D_rankbk			D_lankfr			D_lankbk			D_lankis			D_rpsi			N_lelbext		
		X1	Y1	Z1	X2	Y2	Z2	X3	Y3	Z3	X4	Y4	Z4	X5	Y5	Z5	X6	Y6	Z6	X7	Y7	Z7	X8	Y8	Z8	X9	Y9	Z9	X10	Y10	Z10	X11	Y11	Z11	X12	Y12	Z12	X13	Y13	Z13	X14	Y14	Z14	X15	Y15	Z15	X16	Y16	Z16	X17	Y17	Z17	X18	Y18	Z18	X19	Y19	Z19	X20	Y20	Z20	X21	Y21	Z21	X22	Y22	Z22	X23	Y23	Z23	X24	Y24	Z24	X25	Y25	Z25	X26	Y26	Z26	X27	Y27	Z27	X28	Y28	Z28	X29	Y29	Z29	X30	Y30	Z30	X31	Y31	Z31	X32	Y32	Z32	X33	Y33	Z33	X34	Y34	Z34	X35	Y35	Z35	X36	Y36	Z36	X37	Y37	Z37	X38	Y38	Z38	X39	Y39	Z39	X40	Y40	Z40	X41	Y41	Z41	X42	Y42	Z42	X43	Y43	Z43	X44	Y44	Z44	X45	Y45	Z45	X46	Y46	Z46	X47	Y47	Z47	X48	Y48	Z48	X49	Y49	Z49	X50	Y50	Z50	X51	Y51	Z51	X52	Y52	Z52	X53	Y53	Z53	X54	Y54	Z54	X55	Y55	Z55	X56	Y56	Z56	X57	Y57	Z57	X58	Y58	Z58	X59	Y59	Z59	X60	Y60	Z60	X61	Y61	Z61	X62	Y62	Z62	X63	Y63	Z63	X64	Y64	Z64	X65	Y65	Z65	X66	Y66	Z66	X67	Y67	Z67	X68	Y68	Z68	X69	Y69	Z69	X70	Y70	Z70	X71	Y71	Z71	X72	Y72	Z72	X73	Y73	Z73	X74	Y74	Z74
																																																																																																																																																																																																																															
1	20.95	-531.99226	1237.58667	-61.31193	-512.1336	1253.47893	-291.94567	-245.20987	1226.59706	-335.62241	-273.4774	1218.83507	14.23205	-386.50589	1609.86038	-149.91157	-244.76927	1663.68942	-154.88196	-434.41998	1810.23315	-157.09826	-246.14359	1765.55267	-218.36321	-292.44102	1774.28909	-68.73625	-252.60809	1645.37491	-336.88599	-223.97163	1607.96967	-608.07735	-312.03232	1579.12811	-616.48884	-280.58758	1679.41422	-589.59282	-233.50464	1692.25388	-927.1138	-277.01529	1712.47681	-928.10913	-310.08514	1678.26294	-921.76903	-256.24569	1612.26456	26.60863	-280.59849	1611.65649	300.73952	-241.67534	1533.17154	309.82357	-244.01022	1590.00992	623.93475	-284.27322	1613.03146	632.93285	-312.35579	1567.07153	628.78529	-417.56161	1052.73384	-427.39609	-373.04943	1012.62543	61.58486	-431.8045	562.49718	-249.31955	-326.21262	580.2932	-317.77302	-369.26296	563.9463	-156.7417	-380.45597	538.62385	-90.04192	-253.89944	554.86675	-31.76203	-257.27369	547.74261	-181.82846	-296.82693	140.66429	-268.36246	-298.69785	154.39095	-188.28701	-217.15353	142.37727	-213.46268	-331.9379	192.70071	-114.26491	-258.25994	184.93345	-72.52401	-294.25994	163.93345	-156.52401	-466.19614	1037.45392	1739.52911	-428.57426	1055.73151	1452.87277	-267.33728	1132.22153	1743.37326	-435.72193	1563.05359	1582.92862	-301.16182	1591.24359	1594.04678	-469.97456	1780.87036	1581.22345	-309.8173	1726.09802	1507.80807	-320.43335	1728.27484	1662.48505	-367.27871	1489.04602	1385.85617	-253.43437	1159.90807	1376.62064	-304.49823	1153.65913	1433.27408	-329.46045	1171.00067	1333.73123	-322.43057	919.21494	1355.448	-376.27838	921.5184	1334.6138	-392.63531	937.14096	1384.27124	-382.85786	1501.20697	1821.11786	-323.47618	1170.14473	1794.1301	-339.44935	1209.29665	1883.35587	-267.86821	1186.78474	1850.81436	-347.73102	947.64816	1883.55164	-390.5526	955.98038	1893.33344	-411.13014	966.40419	1848.4404	-335.90141	1004.26628	1406.24146	-324.77985	1009.03786	1805.5011	-376.60358	455.383	1450.2034	-277.37633	491.4817	1422.14783	-283.49798	459.09817	1542.50351	-360.56915	448.37677	1770.23315	-247.97892	486.60503	1786.07681	-319.82035	444.05247	1678.86337	-324.72534	130.35305	1418.0394	-295.25385	127.07372	1482.7861	-244.47596	128.43936	1417.90665	-323.98689	134.96311	1791.84113	-251.51407	125.1931	1805.9903	-294.63003	124.21782	1732.7597	-237.76062	1145.98732	1525.81177	-332.8236	1522.85614	312.63329
2	20.967	-531.80939	1237.47437	-61.36396	-511.9009	1253.38234	-291.93317	-245.06207	1226.61949	-335.59078	-273.40916	1218.88382	14.25865	-386.41788	1610.03693	-150.19392	-244.68126	1663.86597	-155.16432	-434.43565	1810.40512	-157.24553	-246.25111	1765.46051	-218.62556	-292.41999	1774.25385	-68.87362	-252.5252	1645.32852	-337.06669	-223.94186	1607.48611	-608.26942	-312.02826	1578.64868	-616.57581	-280.56351	1678.98651	-589.77612	-233.84233	1691.62613	-927.33055	-277.45296	1711.86768	-928.38379	-310.48405	1677.68845	-921.93253	-256.47587	1612.35687	26.41915	-281.10144	1611.90323	300.59225	-242.55798	1533.26614	309.79252	-245.53165	1590.41016	623.94703	-285.50213	1613.49899	632.73663	-313.92132	1567.64221	628.66737	-417.37125	1052.7092	-427.39357	-373.1015	1012.67258	61.67516	-431.69872	562.51587	-249.33201	-326.12801	580.32452	-317.75309	-369.24374	563.9875	-156.72359	-380.50087	538.66718	-90.09825	-253.87457	554.86137	-31.78735	-257.24192	547.73834	-181.79306	-296.78753	140.6764	-268.38322	-298.72513	154.41701	-188.30517	-217.12082	142.36221	-213.46815	-331.95236	192.69562	-114.32405	-258.32544	184.9198	-72.54592	-294.32544	163.9198	-156.54592	-465.67806	1036.96571	1739.25735	-428.9011	1056.02249	1452.96326	-267.31787	1132.24403	1742.99042	-436.13888	1562.98553	1582.58087	-301.5707	1591.47385	1593.14346	-470.1609	1780.90897	1580.63049	-310.0149	1725.89539	1507.41516	-320.61386	1728.20297	1662.12265	-367.3315	1488.93585	1385.71198	-251.83842	1160.01427	1376.33377	-302.60712	1154.58641	1432.24808	-327.19124	1172.33704	1332.01263	-323.78391	919.90891	1353.57681	-377.79324	923.18558	1333.47992	-393.20164	938.69217	1383.39584	-380.97878	1501.80969	1820.23315	-324.55566	1172.0607	1797.83386	-339.98207	1212.19772	1887.09244	-268.73974	1187.78488	1854.39789	-352.73018	950.3019	1892.34161	-395.11787	959.70711	1902.08466	-415.52956	969.38332	1856.93924	-336.07521	1004.25957	1406.31516	-323.88786	1009.61777	1806.84418	-376.83964	455.29427	1450.22598	-277.60656	491.54041	1422.00729	-283.63276	459.22707	1542.44537	-360.81253	448.53035	1769.92188	-247.98525	486.57372	1785.97702	-319.89094	444.07028	1678.71796	-324.7578	130.3728	1418.02719	-295.27964	127.12496	1482.73956	-244.51071	128.51896	1417.87567	-324.04732	134.9915	1791.77429	-251.49553	125.1939	1805.9198	-294.64886	124.22639	1732.72293	-237.94981	1146.05309	1525.44556	-333.46214	1523.18741	312.41409
3	20.983	-531.54396	1237.38167	-61.41202	-511.66454	1253.26355	-291.95583	-244.84711	1226.62811	-335.57457	-273.31383	1218.96332	14.20592	-386.61411	1610.02792	-150.20047	-244.87751	1663.85696	-155.17087	-434.59583	1810.45654	-157.38285	-246.49952	1765.40909	-219.00537	-292.64881	1774.21432	-68.94481	-252.45707	1645.30502	-337.27245	-224.02697	1606.97205	-608.49201	-312.07392	1578.2933	-616.59504	-280.02588	1678.8121	-590.11635	-234.20139	1690.75821	-927.60307	-277.80354	1711.10001	-928.5701	-310.79544	1676.93253	-922.13608	-256.5423	1612.49542	26.32731	-281.60133	1612.1907	300.51834	-243.23368	1533.57147	309.88001	-246.79926	1590.97046	624.05384	-287.01687	1614.02863	632.65209	-315.21755	1568.08029	628.5294	-417.1143	1052.6226	-427.36046	-372.81944	1012.65976	61.63813	-431.61472	562.54204	-249.33659	-326.03512	580.33092	-317.74862	-369.19319	563.97751	-156.72005	-380.46146	538.68111	-90.13499	-253.86505	554.8386	-31.74786	-257.20907	547.7404	-181.75804	-296.76559	140.67359	-268.39256	-298.70886	154.42372	-188.3057	-217.14165	142.33406	-213.42148	-331.94103	192.68555	-114.35553	-258.29571	184.90774	-72.57618	-294.29571	163.90774	-156.57618	-465.45097	1036.91902	1739.27048	-429.12567	1056.29944	1453.04276	-267.09766	1132.3661	1742.63763	-436.62228	1562.96066	1582.32147	-302.32998	1591.73706	1592.35733	-470.33001	1781.0675	1580.27893	-310.36186	1725.59143	1506.74622	-320.69138	1727.92145	1661.32477	-367.44987	1488.52722	1385.4039	-249.8616	1159.91882	1374.8761	-300.23726	1155.522	1430.29129	-324.3454	1173.89183	1329.60266	-326.41891	920.94063	1349.5137	-380.52135	925.75821	1330.34134	-394.95499	941.58775	1380.59555	-379.43958	1502.88284	1819.19861	-325.87181	1174.47739	1802.63885	-340.46505	1215.69	1891.83075	-270.1343	1189.19563	1859.18274	-358.568	954.2942	1904.1507	-400.90706	964.67255	1913.40134	-421.35956	973.61549	1867.89307	-336.24905	1004.25285	1406.38885	-323.61229	1009.61403	1806.85623	-377.00611	455.29999	1450.15244	-277.78288	491.53957	1421.92978	-283.81306	459.30401	1542.31384	-360.62222	448.386	1770.15549	-248.16612	486.44039	1785.746	-319.9534	444.05582	1678.6087	-324.8278	130.36612	1418.01575	-295.33924	127.16565	1482.74841	-244.56326	128.55834	1417.81296	-324.03072	134.98186	1791.76041	-251.52578	125.18858	1805.85129	-294.68794	124.21057	1732.68341	-237.82557	1145.91301	1524.5871	-334.12998	1523.517	312.30955
4	21	-531.31458	1237.27768	-61.51149	-511.4352	1253.12355	-292.02978	-244.65387	1226.61491	-335.55107	-273.15163	1219.05357	14.11737	-386.46191	1609.78851	-150.65302	-244.72527	1663.61755	-155.62342	-434.83879	1810.36453	-157.50263	-246.7067	1765.29694	-219.00156	-292.7647	1774.23187	-69.30668	-252.39559	1645.32593	-337.46315	-224.05207	1606.54633	-608.67825	-312.2151	1577.87415	-616.66374	-280.01595	1678.39066	-590.23682	-234.50745	1690.01907	-927.81898	-278.05796	1710.27771	-928.8327	-311.06443	1676.30707	-922.27119	-256.65581	1612.7652	26.19779	-282.29813	1612.40356	300.33781	-243.65789	1533.81805	309.77537	-248.23631	1591.5506	623.82584	-288.52892	1614.48059	632.47231	-316.45628	1568.44772	628.35999	-416.85345	1052.48055	-427.28382	-372.67162	1012.71675	61.67946	-431.53725	562.55989	-249.36396	-325.94639	580.32925	-317.74185	-369.14452	563.99109	-156.7302	-380.44186	538.70285	-90.12533	-253.94936	554.8251	-31.68645	-257.1443	547.74414	-181.74862	-296.74423	140.67543	-268.40887	-298.69164	154.41723	-188.31308	-217.14703	142.33444	-213.43451	-331.91345	192.68576	-114.36167	-258.29706	184.90818	-72.57395	-294.29706	163.90818	-156.57395	-465.57312	1036.88217	1739.28741	-429.60876	1056.38168	1453.69904	-267.02805	1132.43317	1742.21786	-437.06676	1562.82654	1582.08206	-302.69703	1592.08145	1591.11923	-470.57575	1781.28448	1579.87076	-310.87055	1725.23071	1506.49155	-321.24744	1727.70966	1661.04065	-367.84191	1487.64877	1384.93683	-247.31789	1159.55719	1372.79083	-297.47126	1156.4994	1427.58545	-320.85037	1175.86861	1326.12854	-331.16951	922.54051	1343.50998	-385.13874	929.86206	1324.72321	-398.46767	945.774	1375.22446	-377.65404	1504.27963	1818.01346	-327.2316	1177.5869	1808.5318	-340.8889	1220.07591	1897.72903	-271.67528	1191.09818	1864.98276	-364.92336	959.48593	1918.52127	-407.11349	971.53908	1927.51236	-427.32208	978.95355	1882.14005	-336.42288	1004.24606	1406.46255	-323.39226	1009.5974	1806.61545	-377.15923	455.29228	1450.02533	-277.98346	491.58123	1421.86691	-284.01232	459.38202	1542.15683	-360.58548	448.39306	1770.12054	-248.02809	486.51714	1785.55252	-320.0156	444.0078	1678.508	-324.87194	130.36614	1417.98187	-295.34069	127.20372	1482.77023	-244.60474	128.60082	1417.79724	-324.03847	134.99304	1791.74118	-251.5085	125.14913	1805.73853	-294.72282	124.16752	1732.64206	-238.3931	1146.0157	1524.88266	-334.65687	1523.70865	312.11557
